<?xml version="1.0" encoding="UTF-8" standalone="no"?>
<svg width="125px" height="125px" viewBox="0 0 125 125" version="1.1" xmlns="http://www.w3.org/2000/svg" xmlns:xlink="http://www.w3.org/1999/xlink">
    <!-- Generator: Sketch 41 (35326) - http://www.bohemiancoding.com/sketch -->
    <title>奖杯 (1)</title>
    <desc>Created with Sketch.</desc>
    <defs>
        <polygon id="path-1" points="0.00914634146 0.122256098 0.00914634146 125.000305 124.881892 125.000305 124.881892 0.122256098 0.00914634146 0.122256098"></polygon>
    </defs>
    <g id="Page-1" stroke="none" stroke-width="1" fill="none" fill-rule="evenodd">
        <g id="奖杯-(1)">
            <mask id="mask-2" fill="white">
                <use xlink:href="#path-1"></use>
            </mask>
            <g id="Clip-2"></g>
            <path d="M124.839787,20.0089939 C124.825457,19.2189024 124.8125,18.5364329 124.8125,17.9618902 L102.28003,17.9618902 C102.715244,8.31234756 102.448476,0.827896341 102.448476,0.827896341 C102.434909,0.439634146 102.106098,0.122256098 101.717378,0.122256098 L62.6833841,0.122256098 C62.5887195,0.122256098 62.4964939,0.12820122 62.4041159,0.138414634 C62.3125,0.12820122 62.2195122,0.122256098 62.1254573,0.122256098 L22.9896341,0.122256098 C22.6015244,0.122256098 22.2727134,0.439634146 22.2585366,0.827896341 C22.2585366,0.827896341 21.9917683,8.31234756 22.4269817,17.9618902 L0.0321646341,17.9618902 C0.0143292683,17.9618902 0,18.2792683 0,18.6675305 L0,26.1762195 C0,26.5644817 0.0202743902,26.8818598 0.0446646341,26.8818598 C0.27027439,34.1560976 1.43262195,43.8853659 6.27027439,53.845122 C10.3724085,62.292378 16.2800305,69.3606707 23.829878,74.8525915 C30.079878,79.4001524 37.220122,82.6751524 45.0713415,84.6324695 C49.6051829,89.471189 54.0765244,92.138872 57.9786585,93.2118902 L57.9786585,103.141311 C57.4224085,106.091921 54.0378049,116.080793 30.4484756,116.080793 L27.4658537,116.080793 C27.0775915,116.080793 26.7602134,116.398171 26.7602134,116.786433 L26.7602134,124.294055 C26.7602134,124.682317 27.0775915,125.000305 27.4658537,125.000305 L97.4120427,125.000305 C97.8003049,125.000305 98.1176829,124.682317 98.1176829,124.294055 L98.1176829,116.787043 C98.1176829,116.39878 97.8003049,116.080793 97.4120427,116.080793 L94.4449695,116.080793 C66.770122,116.080793 66.8920732,103.034756 66.8920732,103.034756 C66.8963415,102.646494 66.8992378,102.011128 66.8992378,101.622866 L66.8992378,93.2102134 C70.8007622,92.1394817 75.1858232,89.4820122 79.6964939,84.6682927 C87.6042683,82.716311 94.7689024,79.4282012 101.058079,74.8525915 C108.60625,69.3606707 114.510366,62.292378 118.6125,53.8439024 C125.21372,40.252439 124.967835,27.0838415 124.839787,20.0089939 Z M14.2893293,49.9466463 C10.2580793,41.6458841 9.20289634,33.2926829 8.97179878,26.8824695 L23.0445122,26.8824695 C23.2875,29.3667683 23.5929878,31.8160061 23.9810976,34.1233232 C26.3535061,48.2585366 29.6143293,60.742378 35.7862805,71.7567073 C26.3547256,66.9792683 18.9464939,59.5371951 14.2893293,49.9466463 Z M110.588567,49.9466463 C105.903506,59.5931402 98.435061,67.0679878 88.9219512,71.8419207 C95.1147866,60.8060976 98.3481707,48.2954268 100.727591,34.1233232 C101.114634,31.8164634 101.420732,29.3667683 101.66311,26.8824695 L115.906098,26.8824695 C115.67378,33.2926829 114.619207,41.6458841 110.588567,49.9466463 Z" id="Fill-1" fill="#DDAD6C" mask="url(#mask-2)"></path>
        </g>
    </g>
</svg>